<?xml version="1.0" standalone="no"?>
<!DOCTYPE svg PUBLIC "-//W3C//DTD SVG 20010904//EN"
 "http://www.w3.org/TR/2001/REC-SVG-20010904/DTD/svg10.dtd">
<svg version="1.0" xmlns="http://www.w3.org/2000/svg"
 width="391.000000pt" height="67.000000pt" viewBox="0 0 391.000000 67.000000"
 preserveAspectRatio="xMidYMid meet">

<g transform="translate(0.000000,67.000000) scale(0.100000,-0.100000)"
fill="#000000" stroke="none">
<path d="M861 577 c-89 -28 -128 -116 -119 -268 9 -149 62 -208 194 -217 111
-7 179 24 222 103 25 46 24 247 -2 295 -22 40 -57 70 -100 87 -39 14 -150 15
-195 0z m94 -7 c3 -6 -1 -13 -10 -16 -9 -4 -14 -13 -11 -20 3 -7 -4 -20 -14
-27 -21 -15 -17 -29 6 -20 8 3 14 1 14 -5 0 -6 -8 -9 -17 -7 -10 2 -24 4 -30
4 -20 1 -15 22 6 28 13 3 17 12 15 31 -4 34 26 56 41 32z m140 -30 c8 -7 15
-17 15 -22 0 -6 -6 -5 -15 2 -8 6 -19 9 -25 5 -5 -3 -13 0 -16 8 -2 7 -11 14
-19 14 -13 0 -12 -4 2 -26 9 -14 22 -30 30 -34 7 -4 13 -16 13 -25 0 -15 -2
-15 -11 -2 -9 12 -10 11 -6 -5 2 -11 -3 -27 -11 -35 -13 -12 -14 -10 -8 13 11
47 -3 76 -48 97 -22 11 -35 19 -28 20 7 0 10 5 6 11 -4 7 2 6 17 -2 22 -11 23
-11 10 4 -12 15 -10 16 33 3 26 -8 53 -20 61 -26z m-199 -6 c-13 -14 -27 2
-19 22 4 10 8 10 17 1 9 -8 10 -14 2 -23z m-56 -36 c0 -11 -12 -10 -30 2 -12
7 -10 9 8 7 12 0 22 -5 22 -9z m144 0 c-5 -9 -2 -8 10 1 14 12 19 12 29 1 9
-10 9 -11 0 -6 -7 4 -13 3 -13 -3 0 -5 -13 -9 -30 -9 -24 1 -28 4 -19 15 14
17 33 17 23 1z m131 -18 c3 -6 -1 -7 -9 -4 -18 7 -21 14 -7 14 6 0 13 -4 16
-10z m-111 -39 c14 -15 16 -35 14 -107 -3 -85 -4 -89 -30 -104 -25 -13 -31
-13 -55 0 -27 15 -28 19 -31 104 -3 99 9 126 58 126 15 0 35 -8 44 -19z m-141
-156 c-3 -9 -8 -14 -10 -11 -3 3 -2 9 2 15 9 16 15 13 8 -4z m-66 -51 c-3 -3
-12 -4 -19 -1 -8 3 -5 6 6 6 11 1 17 -2 13 -5z"/>
<path d="M932 431 c-16 -10 -23 -106 -12 -154 6 -24 8 -12 9 49 1 84 7 97 46
107 16 4 16 5 -5 6 -14 0 -31 -3 -38 -8z"/>
<path d="M1315 567 c-52 -25 -95 -82 -95 -125 0 -29 -18 -37 -23 -10 -2 13 -5
-31 -6 -97 -2 -140 -17 -178 -89 -230 -41 -28 -50 -30 -132 -30 -49 0 -82 -3
-72 -7 37 -14 147 -8 187 12 68 32 90 58 116 133 11 32 18 43 18 29 2 -58 64
-124 134 -143 56 -15 153 -7 200 16 22 10 51 36 65 58 26 38 27 47 27 166 0
146 -10 174 -77 219 -35 23 -54 27 -122 30 -69 2 -89 -1 -131 -21z m110 3 c3
-6 -1 -13 -9 -16 -9 -3 -13 -10 -11 -15 3 -4 -3 -17 -14 -28 -21 -21 -18 -32
7 -24 13 4 14 3 3 -5 -7 -5 -22 -7 -32 -5 -23 6 -26 33 -3 33 9 0 14 7 12 18
-3 19 18 52 33 52 4 0 11 -5 14 -10z m130 -24 c14 -9 25 -21 25 -27 0 -6 -5
-7 -12 -2 -7 4 -27 13 -45 19 -31 11 -32 11 -21 -10 6 -11 19 -27 30 -34 10
-7 18 -21 17 -30 0 -12 -2 -13 -6 -3 -5 11 -7 11 -14 0 -7 -11 -9 -10 -9 4 0
10 -4 15 -10 12 -6 -4 -7 1 -3 11 4 12 3 15 -6 10 -8 -6 -11 -2 -9 10 2 11 -2
18 -9 17 -7 -2 -13 2 -13 7 0 6 -7 10 -15 10 -8 0 -15 7 -15 15 0 13 4 14 23
4 19 -11 21 -10 9 3 -11 14 -9 15 23 8 19 -4 47 -15 60 -24z m-193 -2 c-3 -18
-7 -22 -13 -13 -4 7 -3 19 3 26 15 18 16 17 10 -13z m-48 -50 c3 -8 2 -12 -4
-9 -6 3 -10 10 -10 16 0 14 7 11 14 -7z m166 -1 c0 -17 -8 -16 -26 1 -12 13
-12 15 6 13 11 -1 20 -7 20 -14z m-7 -46 c15 -10 17 -27 15 -107 -3 -91 -4
-95 -30 -110 -25 -13 -31 -13 -55 0 -27 15 -28 19 -31 105 -3 82 -1 92 19 108
25 20 58 22 82 4z m67 -11 c0 -2 -7 -9 -15 -16 -12 -10 -15 -10 -15 4 0 9 7
16 15 16 8 0 15 -2 15 -4z m-235 -126 c3 -5 1 -10 -4 -10 -6 0 -11 5 -11 10 0
6 2 10 4 10 3 0 8 -4 11 -10z"/>
<path d="M1403 433 c-9 -3 -12 -31 -11 -96 l2 -92 3 80 c4 84 11 101 46 108
19 4 19 4 -3 5 -14 0 -31 -2 -37 -5z"/>
<path d="M87 553 c3 -16 30 -122 58 -238 l52 -210 81 -3 80 -3 17 78 c24 114
26 119 35 102 4 -8 13 -43 19 -79 20 -109 12 -101 104 -98 l80 3 53 205 c29
113 55 220 59 238 l6 32 -74 0 -75 0 -12 -82 c-21 -153 -30 -163 -49 -60 -7
37 -16 84 -22 105 l-10 37 -78 0 -79 0 -11 -47 c-5 -27 -16 -74 -22 -105 -19
-88 -28 -76 -44 57 -12 102 -6 95 -95 95 l-80 0 7 -27z m387 -97 c-3 -9 -11
-13 -17 -9 -7 4 -8 0 -3 -12 5 -15 4 -16 -9 -5 -12 10 -15 10 -15 -4 0 -9 6
-16 13 -17 9 0 9 -2 0 -6 -7 -2 -20 2 -28 10 -18 19 -19 27 -2 27 6 0 23 9 37
20 28 21 33 20 24 -4z m-91 -30 c4 -10 1 -13 -8 -9 -8 3 -12 9 -9 14 7 12 11
11 17 -5z m231 -14 c3 -5 -1 -9 -9 -9 -8 0 -12 4 -9 9 3 4 7 8 9 8 2 0 6 -4 9
-8z m-257 -18 c-3 -3 -12 -4 -19 -1 -8 3 -5 6 6 6 11 1 17 -2 13 -5z m147 -19
c-4 -8 -8 -15 -10 -15 -2 0 -4 7 -4 15 0 8 4 15 10 15 5 0 7 -7 4 -15z m-164
-76 c0 -4 -3 -9 -7 -12 -5 -2 -2 -2 5 -1 6 2 12 -1 12 -6 0 -6 -4 -10 -10 -10
-5 0 -13 0 -17 0 -5 0 -8 8 -9 18 -1 10 5 19 12 19 8 0 14 -4 14 -8z m31 -4
c5 4 6 -1 2 -10 -5 -13 -7 -14 -14 -3 -5 7 -8 18 -8 23 0 6 3 4 6 -3 2 -6 9
-10 14 -7z m-1 -46 c0 -5 -4 -7 -10 -4 -5 3 -10 1 -10 -6 0 -7 -3 -10 -6 -6
-8 7 4 27 17 27 5 0 9 -5 9 -11z m120 -10 c0 -5 -4 -9 -8 -9 -5 0 -9 7 -9 15
0 8 4 12 9 9 4 -3 8 -9 8 -15z m-244 -31 c-2 -13 1 -32 6 -43 9 -19 9 -19 -6
-1 -9 10 -13 23 -10 27 3 5 1 9 -4 9 -5 0 -9 7 -9 15 0 8 6 15 14 15 8 0 11
-9 9 -22z m64 -2 c0 -3 -4 -8 -10 -11 -5 -3 -10 -1 -10 4 0 6 5 11 10 11 6 0
10 -2 10 -4z m205 -6 c3 -5 1 -10 -4 -10 -6 0 -11 5 -11 10 0 6 2 10 4 10 3 0
8 -4 11 -10z m59 -35 c2 -6 -2 -12 -10 -12 -7 0 -15 6 -18 12 -2 6 2 12 10 12
7 0 15 -6 18 -12z m-67 -1 c-3 -3 -12 -4 -19 -1 -8 3 -5 6 6 6 11 1 17 -2 13
-5z m73 -34 c0 -5 -4 -10 -10 -10 -5 0 -10 5 -10 10 0 6 5 10 10 10 6 0 10 -4
10 -10z"/>
<path d="M1797 538 c-8 -24 -34 -97 -57 -163 -23 -66 -52 -149 -66 -185 -13
-36 -24 -71 -24 -78 0 -8 22 -12 75 -12 l75 0 13 33 c15 34 14 34 122 28 13
-1 25 -12 32 -31 11 -30 12 -30 87 -30 59 0 76 3 76 14 0 12 -76 236 -140 411
l-18 50 -79 3 -80 3 -16 -43z m77 -1 c-3 -7 2 -3 10 7 9 11 16 15 16 9 0 -5
-9 -18 -20 -28 -11 -10 -17 -21 -15 -26 3 -4 1 -10 -5 -14 -6 -4 -10 4 -10 19
0 33 10 57 21 50 5 -3 7 -11 3 -17z m60 11 c-3 -4 -9 -8 -15 -8 -5 0 -9 4 -9
8 0 5 7 9 15 9 8 0 12 -4 9 -9z m36 -12 c0 -2 -8 -10 -17 -17 -16 -13 -17 -12
-4 4 13 16 21 21 21 13z m-30 -57 c13 -7 13 -8 0 -8 -8 0 -26 6 -40 15 l-25
15 25 -7 c14 -3 32 -10 40 -15z m39 -31 c-13 -24 -16 -23 -13 5 1 12 3 27 3
32 1 6 5 3 10 -4 6 -9 6 -22 0 -33z m-78 -15 c-17 -24 -31 -30 -31 -13 0 6 7
13 16 17 12 5 13 7 2 14 -9 6 -6 8 9 7 20 -2 20 -3 4 -25z m49 -3 c0 -5 -8
-10 -17 -10 -15 0 -16 2 -3 10 19 12 20 12 20 0z m10 -40 c0 -5 -2 -10 -4 -10
-3 0 -8 5 -11 10 -3 6 -1 10 4 10 6 0 11 -4 11 -10z m-119 -27 c13 -16 12 -17
-3 -4 -17 13 -22 21 -14 21 2 0 10 -8 17 -17z m62 -10 c3 -16 9 -36 12 -45 6
-15 2 -18 -24 -18 -35 0 -35 0 -20 53 12 44 24 48 32 10z m114 5 c-3 -8 -6 -5
-6 6 -1 11 2 17 5 13 3 -3 4 -12 1 -19z m-67 -8 c0 -5 -5 -10 -11 -10 -5 0 -7
5 -4 10 3 6 8 10 11 10 2 0 4 -4 4 -10z m-40 -89 c0 -12 -20 -25 -27 -18 -7 7
6 27 18 27 5 0 9 -4 9 -9z m30 -1 c0 -5 -4 -10 -10 -10 -5 0 -10 5 -10 10 0 6
5 10 10 10 6 0 10 -4 10 -10z m55 0 c-3 -5 -12 -10 -18 -10 -7 0 -6 4 3 10 19
12 23 12 15 0z m-165 -44 c0 -3 -4 -8 -10 -11 -5 -3 -10 -1 -10 4 0 6 5 11 10
11 6 0 10 -2 10 -4z"/>
<path d="M1887 323 c-4 -3 -7 -11 -7 -17 0 -6 5 -5 12 2 6 6 9 14 7 17 -3 3
-9 2 -12 -2z"/>
<path d="M2167 573 c-4 -3 -7 -101 -8 -217 l0 -211 -63 180 c-60 174 -84 231
-91 223 -2 -2 30 -98 71 -213 41 -116 73 -219 72 -230 -3 -17 -13 -21 -73 -26
l-70 -5 78 -2 c61 -2 79 1 83 13 5 11 23 15 74 15 77 0 80 3 80 79 l0 48 70 6
c87 7 131 32 159 91 23 47 27 96 10 147 -29 86 -81 108 -255 109 -72 0 -134
-3 -137 -7z m128 -13 c3 -5 1 -10 -4 -10 -6 0 -11 5 -11 10 0 6 2 10 4 10 3 0
8 -4 11 -10z m-58 -9 c10 9 13 8 13 -5 0 -9 5 -16 12 -16 6 0 8 -3 5 -6 -4 -4
-13 -1 -21 5 -10 8 -16 9 -21 1 -3 -6 -11 -8 -16 -5 -5 4 -9 -5 -9 -19 0 -20
4 -24 18 -19 16 7 16 6 0 -11 -19 -19 -23 -36 -9 -36 5 0 12 -8 16 -17 5 -14
4 -15 -6 -6 -10 10 -15 9 -26 -5 -8 -9 -11 -11 -8 -4 12 22 13 66 3 85 -5 9
-5 23 -1 30 4 6 8 15 9 20 1 4 2 10 3 14 0 4 6 2 13 -5 8 -8 15 -9 25 -1z
m247 -60 c3 -5 0 -11 -8 -14 -8 -3 -17 1 -20 9 -6 15 19 20 28 5z m-82 -66
c15 -33 -4 -55 -48 -55 -33 0 -34 1 -34 40 0 39 1 40 35 40 28 0 38 -5 47 -25z
m103 -45 c14 5 24 2 33 -12 12 -17 12 -22 -4 -39 -9 -10 -22 -19 -28 -19 -6 0
-4 5 4 10 13 8 13 10 -1 10 -9 0 -19 -7 -23 -15 -3 -8 -1 -15 4 -15 19 0 10
-17 -16 -29 -15 -6 -27 -10 -29 -9 -11 17 -26 69 -21 77 4 5 2 12 -4 16 -5 3
-10 11 -10 17 0 6 3 9 6 5 9 -9 33 16 26 28 -3 6 6 0 19 -11 17 -15 30 -19 44
-14z m-111 -94 c-3 -9 -11 -16 -16 -16 -6 0 -5 6 2 15 7 8 8 15 3 15 -5 0 -9
10 -10 21 l-2 22 15 -21 c7 -11 11 -27 8 -36z m-134 -33 c0 -1 -9 -7 -19 -12
-14 -8 -20 -7 -24 2 -3 7 5 12 19 12 13 0 24 -1 24 -2z m17 -95 c-3 -8 -6 -5
-6 6 -1 11 2 17 5 13 3 -3 4 -12 1 -19z"/>
<path d="M2339 428 c-6 -21 -5 -38 2 -38 5 0 9 5 9 10 0 6 10 15 23 20 21 8
21 9 -5 9 -16 1 -28 0 -29 -1z"/>
<path d="M2466 355 c4 -8 12 -15 19 -15 16 0 30 19 20 28 -3 3 -10 0 -15 -8
-7 -10 -10 -11 -10 -2 0 6 -4 12 -10 12 -5 0 -7 -7 -4 -15z"/>
<path d="M2440 345 c0 -8 4 -15 10 -15 5 0 7 7 4 15 -4 8 -8 15 -10 15 -2 0
-4 -7 -4 -15z"/>
<path d="M2448 313 c7 -3 16 -2 19 1 4 3 -2 6 -13 5 -11 0 -14 -3 -6 -6z"/>
<path d="M2614 567 c-2 -7 -3 -114 -2 -237 l3 -225 69 -3 c81 -3 86 1 86 76
l0 52 41 0 c106 0 176 44 199 124 24 87 -11 174 -83 206 -35 16 -66 20 -175
20 -98 0 -134 -3 -138 -13z m56 -18 c0 -8 6 -7 17 2 10 8 14 9 10 2 -4 -7 0
-16 10 -22 10 -6 13 -11 6 -11 -6 0 -15 5 -18 10 -4 6 -12 7 -18 3 -7 -4 -15
-8 -19 -8 -5 0 -8 -3 -8 -7 0 -5 0 -15 0 -24 0 -8 5 -12 10 -9 6 3 10 2 10 -4
0 -5 -4 -13 -10 -16 -6 -4 -3 -17 7 -33 10 -16 11 -22 3 -15 -11 10 -16 9 -27
-5 -8 -9 -11 -11 -8 -4 11 22 13 66 4 83 -5 10 -4 27 4 43 12 27 27 35 27 15z
m250 -66 c0 -10 -4 -14 -8 -8 -4 6 -11 13 -16 18 -5 4 -2 7 7 7 10 0 17 -8 17
-17z m-76 -49 c32 -32 11 -64 -41 -64 -32 0 -33 1 -33 40 0 38 2 40 29 40 16
0 37 -7 45 -16z m130 -28 c-21 -15 -30 -14 -19 3 3 6 14 11 23 11 13 0 13 -2
-4 -14z m-50 -25 c3 -4 16 -6 29 -4 34 7 51 -17 31 -45 -8 -12 -21 -22 -27
-22 -7 0 -6 4 3 11 11 7 4 8 -24 4 -22 -3 -42 -8 -45 -12 -3 -3 4 -3 17 0 12
3 22 1 22 -3 0 -5 8 -10 18 -12 13 -3 10 -8 -15 -21 -18 -9 -34 -17 -36 -17
-2 0 -10 18 -17 40 -7 22 -18 40 -24 40 -6 0 -4 5 4 10 8 5 11 10 7 10 -4 0
-2 7 5 15 14 16 44 20 52 6z m-79 -70 c11 -14 14 -21 8 -17 -8 4 -13 1 -13 -8
0 -33 -15 -14 -16 19 -1 20 -1 34 0 33 1 -2 10 -14 21 -27z m-135 -58 c0 -1
-9 -7 -19 -12 -14 -8 -20 -7 -24 2 -3 7 5 12 19 12 13 0 24 -1 24 -2z m17 -95
c-3 -7 -5 -2 -5 12 0 14 2 19 5 13 2 -7 2 -19 0 -25z"/>
<path d="M2783 415 c-9 -26 4 -28 26 -6 21 21 21 21 1 21 -11 0 -23 -7 -27
-15z"/>
<path d="M2916 355 c4 -8 8 -15 10 -15 2 0 4 7 4 15 0 8 -4 15 -10 15 -5 0 -7
-7 -4 -15z"/>
<path d="M2940 354 c0 -8 5 -12 10 -9 6 3 10 10 10 16 0 5 -4 9 -10 9 -5 0
-10 -7 -10 -16z"/>
<path d="M2891 344 c0 -11 3 -14 6 -6 3 7 2 16 -1 19 -3 4 -6 -2 -5 -13z"/>
<path d="M3060 340 l0 -240 168 2 167 3 0 60 0 60 -87 3 c-49 1 -89 6 -89 10
-1 4 -3 70 -4 147 -1 77 -3 152 -4 168 -1 27 -1 27 -76 27 l-75 0 0 -240z
m109 200 c0 -8 2 -33 4 -55 3 -28 3 -31 -2 -10 -6 28 -7 29 -18 10 -12 -20
-12 -20 -10 2 0 12 5 19 9 17 4 -3 8 -1 8 4 0 12 -47 25 -61 16 -6 -3 -5 3 3
15 15 25 66 26 67 1z m-48 -49 c-10 -6 -10 -10 -1 -16 6 -4 9 -13 6 -20 -3 -8
4 -17 15 -20 12 -4 19 -15 18 -28 -1 -16 -2 -18 -6 -5 -2 9 -13 20 -25 23 -13
5 -18 13 -15 26 3 10 1 21 -3 24 -4 3 -6 14 -3 26 4 15 9 17 17 9 8 -8 7 -13
-3 -19z m224 -312 c-4 -5 -1 -9 4 -9 6 0 11 -8 11 -17 0 -15 -2 -14 -15 3 -17
22 -20 48 -5 39 6 -4 8 -11 5 -16z"/>
<path d="M3440 385 c0 -150 -3 -195 -13 -195 -8 0 -11 -13 -9 -43 3 -28 -1
-47 -10 -55 -9 -7 -70 -13 -169 -15 l-154 -3 167 -2 c151 -2 167 0 172 16 5
15 23 17 188 17 l183 0 0 60 0 60 -106 0 -106 0 7 25 c6 23 12 25 66 27 32 1
67 2 77 2 16 1 18 9 15 64 l-3 62 -78 3 c-68 2 -78 5 -75 20 3 14 18 17 101
20 l97 3 0 64 0 65 -175 0 -175 0 0 -195z m80 105 c0 -5 -2 -10 -4 -10 -3 0
-8 5 -11 10 -3 6 -1 10 4 10 6 0 11 -4 11 -10z m38 -60 c3 -9 -1 -11 -12 -7
-9 4 -16 1 -16 -6 0 -8 -4 -7 -10 3 -6 9 -5 17 3 22 16 10 30 5 35 -12z m2
-37 c0 -15 -2 -16 -10 -3 -8 13 -10 12 -10 -2 0 -10 5 -18 11 -18 11 0 6 -50
-7 -72 -6 -10 -4 -10 9 1 13 10 17 10 17 1 0 -10 3 -10 15 0 9 7 18 10 22 7 3
-4 -7 -11 -23 -18 -16 -6 -37 -15 -46 -20 -11 -5 -19 -4 -22 4 -4 7 -5 3 -2
-9 2 -13 -2 -21 -11 -21 -7 0 -12 5 -10 11 2 6 -8 19 -22 28 -14 10 -20 18
-13 18 6 0 12 6 12 14 0 8 9 18 20 21 11 3 25 15 30 26 9 15 7 19 -7 19 -14 0
-12 3 7 14 34 19 40 19 40 -1z m-83 -45 c-3 -8 -6 -5 -6 6 -1 11 2 17 5 13 3
-3 4 -12 1 -19z m67 -120 c-1 -13 -3 -27 -3 -31 -1 -5 -6 -5 -11 -2 -6 3 -13
-1 -16 -9 -3 -9 -10 -16 -15 -16 -18 0 -9 17 16 30 13 7 22 17 19 22 -3 4 -2
13 1 18 9 15 12 12 9 -12z m121 -78 c3 -5 -1 -10 -10 -10 -9 0 -13 5 -10 10 3
6 8 10 10 10 2 0 7 -4 10 -10z"/>
<path d="M3533 345 c0 -8 4 -12 9 -9 4 3 8 9 8 15 0 5 -4 9 -8 9 -5 0 -9 -7
-9 -15z"/>
<path d="M3487 296 c-4 -10 -1 -13 8 -9 8 3 12 9 9 14 -7 12 -11 11 -17 -5z"/>
<path d="M264 537 c3 -10 6 -36 6 -58 0 -22 5 -39 11 -39 14 0 2 90 -13 105
-8 7 -9 4 -4 -8z"/>
<path d="M691 334 c-30 -120 -58 -227 -63 -236 -6 -13 -25 -18 -81 -21 l-72
-3 83 -2 c45 -1 82 0 82 3 0 3 25 103 55 222 31 119 55 226 53 237 -2 11 -27
-79 -57 -200z"/>
<path d="M3810 495 l-5 -60 -100 -6 -100 -5 95 -2 c52 -1 101 2 108 7 9 5 12
26 10 67 l-4 59 -4 -60z"/>
<path d="M522 520 c0 -14 4 -38 8 -55 l8 -30 0 35 c0 19 -3 44 -8 55 -8 18 -9
18 -8 -5z"/>
<path d="M3230 400 c0 -87 4 -140 10 -140 6 0 10 53 10 140 0 87 -4 140 -10
140 -6 0 -10 -53 -10 -140z"/>
<path d="M1668 389 c7 -118 -4 -182 -41 -231 -52 -67 -87 -83 -189 -83 -48 0
-80 -3 -70 -7 9 -4 47 -7 83 -7 98 -1 164 35 202 108 24 49 27 65 26 150 -1
53 -4 107 -9 121 -4 14 -5 -9 -2 -51z"/>
<path d="M2582 405 c-1 -77 -12 -105 -53 -139 -43 -36 -67 -45 -134 -48 -60
-3 -64 -8 -61 -68 4 -59 -7 -69 -77 -73 l-62 -3 71 -2 c82 -2 84 0 84 79 l0
49 41 0 c137 0 230 103 202 223 l-10 42 -1 -60z"/>
<path d="M3031 402 c-1 -73 -18 -111 -65 -147 -31 -24 -133 -50 -168 -43 -9 2
-14 -16 -18 -62 l-5 -65 -65 -6 -65 -6 71 -1 c82 -2 84 0 84 79 l0 49 46 0
c58 0 135 33 162 70 31 41 45 107 33 155 -9 39 -9 39 -10 -23z"/>
<path d="M3768 318 l-3 -53 -80 -6 -80 -5 82 -2 c45 -1 84 2 88 7 9 16 13 101
4 106 -4 3 -9 -18 -11 -47z"/>
<path d="M396 190 c-3 -16 -9 -43 -12 -59 -8 -42 -21 -49 -94 -54 l-65 -3 78
-2 c88 -2 88 -2 102 96 7 55 1 72 -9 22z"/>
<path d="M3817 170 c-3 -14 -8 -38 -9 -55 l-3 -30 -170 -5 -170 -6 177 -2 178
-2 6 23 c3 13 4 41 2 63 -3 34 -5 36 -11 14z"/>
<path d="M1829 118 c-13 -32 -17 -33 -84 -39 l-70 -5 70 -2 c77 -2 91 3 96 33
3 16 13 21 52 23 62 4 61 22 -1 22 -45 0 -49 -2 -63 -32z"/>
</g>
</svg>
